<svg width="74" height="74" viewBox="0 0 74 74" fill="none" xmlns="http://www.w3.org/2000/svg">
<g clip-path="url(#clip0_172_20)">
<path d="M64.8824 15.0576C66.5891 13.2779 66.3173 10.6345 64.2631 9.15581C62.2089 7.6771 59.1579 7.91265 57.4511 9.69234L37.0001 30.957L16.549 9.69234C14.8423 7.91265 11.7912 7.6771 9.73706 9.15581C7.68289 10.6345 7.41101 13.2779 9.11779 15.0576L30.7016 37.5L9.11779 59.9423C7.41101 61.722 7.68289 64.3654 9.73706 65.8441C11.7912 67.3228 14.8423 67.0873 16.549 65.3076L37.0001 44.0429L57.4511 65.3076C59.1579 67.0873 62.2089 67.3228 64.2631 65.8441C66.3173 64.3654 66.5891 61.722 64.8824 59.9423L43.2985 37.5L64.8824 15.0576Z" fill="#CA0000"/>
</g>
<defs>
<clipPath id="clip0_172_20">
<rect width="58" height="67" fill="white" transform="translate(8 4)"/>
</clipPath>
</defs>
</svg>
