<svg width="496" height="512" viewBox="0 0 496 512" fill="none" xmlns="http://www.w3.org/2000/svg">
<path d="M450.869 117.428C445.292 176.586 420.874 320.256 408.514 386.507C403.238 414.576 392.989 423.933 383.04 424.839C361.335 426.8 344.906 410.502 323.803 396.618C290.944 375.037 272.253 361.606 240.449 340.478C203.52 316.181 227.486 302.75 248.438 280.867C254.015 275.133 349.578 188.056 351.387 180.208C351.689 179.152 351.839 175.53 349.578 173.568C347.317 171.606 344.152 172.361 341.891 172.813C338.575 173.518 286.02 208.278 184.227 277.094C169.355 287.357 155.839 292.337 143.68 292.035C130.265 291.733 104.641 284.489 85.4982 278.302C62.135 270.756 43.4444 266.681 45.1024 253.703C45.9063 246.962 55.2014 240.07 72.9876 233.028C181.916 185.54 254.568 154.201 290.944 139.009C394.797 95.8475 416.352 88.3018 430.37 88C433.535 88 440.318 88.7546 444.84 92.3765C447.791 94.9743 449.672 98.5784 450.116 102.488C450.931 107.423 451.184 112.435 450.869 117.428Z" fill="black"/>
</svg>
